<svg width="25" height="25" viewBox="0 0 25 25" fill="none" xmlns="http://www.w3.org/2000/svg">
<path fill-rule="evenodd" clip-rule="evenodd" d="M3.35382 13.0524C3.04873 12.7473 3.04873 12.2527 3.35382 11.9476L7.45539 7.84601C7.76048 7.54091 8.25514 7.54091 8.56024 7.84601C8.86534 8.15111 8.86534 8.64577 8.56024 8.95087L5.0111 12.5L8.56024 16.0491C8.86534 16.3542 8.86534 16.8489 8.56024 17.154C8.25514 17.4591 7.76048 17.4591 7.45539 17.154L3.35382 13.0524Z" fill="#000"/>
<path fill-rule="evenodd" clip-rule="evenodd" d="M3.125 12.5C3.125 12.0685 3.47478 11.7188 3.90625 11.7188L14.8438 11.7188C15.2752 11.7188 15.625 12.0685 15.625 12.5C15.625 12.9315 15.2752 13.2813 14.8438 13.2813L3.90625 13.2812C3.47478 13.2812 3.125 12.9315 3.125 12.5Z" fill="#000"/>
<path fill-rule="evenodd" clip-rule="evenodd" d="M14.0625 21.0938C14.0625 20.6623 14.4123 20.3125 14.8438 20.3125H20.3125V4.6875H14.8438C14.4123 4.6875 14.0625 4.33772 14.0625 3.90625C14.0625 3.47478 14.4123 3.125 14.8438 3.125H20.3125C20.7269 3.125 21.1243 3.28962 21.4174 3.58264C21.7104 3.87567 21.875 4.2731 21.875 4.6875V20.3125C21.875 20.7269 21.7104 21.1243 21.4174 21.4174C21.1243 21.7104 20.7269 21.875 20.3125 21.875H14.8438C14.4123 21.875 14.0625 21.5252 14.0625 21.0938Z" fill="#000"/>
</svg>
