<svg width="20" height="20" viewBox="0 0 20 20" fill="none" xmlns="http://www.w3.org/2000/svg">
<path fill-rule="evenodd" clip-rule="evenodd" d="M2.68306 10.4419C2.43898 10.1979 2.43898 9.80214 2.68306 9.55806L5.96431 6.27681C6.20839 6.03273 6.60411 6.03273 6.84819 6.27681C7.09227 6.52089 7.09227 6.91661 6.84819 7.16069L4.00888 10L6.84819 12.8393C7.09227 13.0834 7.09227 13.4791 6.84819 13.7232C6.60411 13.9673 6.20839 13.9673 5.96431 13.7232L2.68306 10.4419Z" fill="#000"/>
<path fill-rule="evenodd" clip-rule="evenodd" d="M2.5 10C2.5 9.65482 2.77982 9.375 3.125 9.375H11.875C12.2202 9.375 12.5 9.65482 12.5 10C12.5 10.3452 12.2202 10.625 11.875 10.625H3.125C2.77982 10.625 2.5 10.3452 2.5 10Z" fill="#000"/>
<path fill-rule="evenodd" clip-rule="evenodd" d="M11.25 16.875C11.25 16.5298 11.5298 16.25 11.875 16.25H16.25V3.75L11.875 3.75C11.5298 3.75 11.25 3.47018 11.25 3.125C11.25 2.77982 11.5298 2.5 11.875 2.5L16.25 2.5C16.5815 2.5 16.8995 2.63169 17.1339 2.86612C17.3683 3.10054 17.5 3.41848 17.5 3.75V16.25C17.5 16.5815 17.3683 16.8995 17.1339 17.1339C16.8995 17.3683 16.5815 17.5 16.25 17.5H11.875C11.5298 17.5 11.25 17.2202 11.25 16.875Z" fill="#000"/>
</svg>
