<svg width="20" height="20" viewBox="0 0 20 20" fill="none" xmlns="http://www.w3.org/2000/svg">
<path fill-rule="evenodd" clip-rule="evenodd" d="M9.99987 1.6C7.05439 1.6 4.66661 4.10719 4.66661 7.19998C4.66661 10.2928 7.05439 12.8 9.99987 12.8C12.9454 12.8 15.3331 10.2928 15.3331 7.19998C15.3331 4.10719 12.9454 1.6 9.99987 1.6ZM3.14282 7.19998C3.14282 3.22354 6.21282 0 9.99987 0C13.7869 0 16.8569 3.22354 16.8569 7.19998C16.8569 11.1764 13.7869 14.4 9.99987 14.4C6.21282 14.4 3.14282 11.1764 3.14282 7.19998Z" fill="#000"/>
<path fill-rule="evenodd" clip-rule="evenodd" d="M10 14.399C8.26122 14.399 6.55308 14.8796 5.04729 15.7926C3.5415 16.7055 2.29113 18.0186 1.42188 19.5998C1.21152 19.9825 0.745564 20.1136 0.381136 19.8927C0.0167074 19.6718 -0.108191 19.1826 0.102167 18.7999C1.10515 16.9754 2.54788 15.4604 4.28533 14.407C6.02278 13.3536 7.99371 12.799 10 12.799C12.0063 12.799 13.9772 13.3536 15.7147 14.407C17.4521 15.4604 18.8948 16.9754 19.8978 18.7999C20.1082 19.1826 19.9833 19.6718 19.6189 19.8927C19.2544 20.1136 18.7885 19.9825 18.5781 19.5998C17.7089 18.0186 16.4585 16.7055 14.9527 15.7926C13.4469 14.8796 11.7388 14.399 10 14.399Z" fill="#000"/>
</svg>
